<svg version="1.1" id="Layer_1" xmlns="http://www.w3.org/2000/svg" xmlns:xlink="http://www.w3.org/1999/xlink" x="0px" y="0px"
	 width="100%" viewBox="0 0 1080 1350" enable-background="new 0 0 1080 1350" xml:space="preserve">
<path fill="#FFFFFF" opacity="1.000000" stroke="none" 
	d="
M666.000000,1351.000000 
	C444.000000,1351.000000 222.500000,1351.000000 1.000000,1351.000000 
	C1.000000,901.000000 1.000000,451.000000 1.000000,1.000000 
	C361.000000,1.000000 721.000000,1.000000 1081.000000,1.000000 
	C1081.000000,451.000000 1081.000000,901.000000 1081.000000,1351.000000 
	C942.833313,1351.000000 804.666687,1351.000000 666.000000,1351.000000 
M637.020081,751.946411 
	C637.619812,756.387573 641.290649,755.316101 643.526306,754.757202 
	C645.286499,754.317261 646.529297,751.807434 648.652039,750.081726 
	C649.089294,750.014099 649.526611,749.946472 650.006226,750.687073 
	C650.119202,751.166931 650.068970,751.879944 650.370239,752.090820 
	C653.493042,754.277161 657.254761,752.793579 657.955505,749.158325 
	C659.394592,741.692871 654.268616,733.231140 648.028076,732.207886 
	C648.352417,730.750000 648.676819,729.292053 649.926086,727.988220 
	C661.562256,728.325378 673.198425,728.662598 685.111023,729.610291 
	C685.374146,730.406860 685.637268,731.203430 685.166748,732.017822 
	C684.182739,733.429749 682.080017,735.257507 682.421631,736.176758 
	C683.504333,739.089661 685.146851,742.005676 687.294678,744.220520 
	C688.336182,745.294556 690.986084,744.808899 693.398621,745.201721 
	C693.596436,745.476196 693.794312,745.750671 693.997009,746.845520 
	C693.816895,751.534790 695.263245,754.550049 700.772705,754.102051 
	C702.017151,754.000854 703.430664,754.999390 704.644348,755.702332 
	C707.249573,757.211426 716.261108,756.445679 718.069702,754.091736 
	C719.039429,752.829529 719.818726,750.604248 719.345581,749.298523 
	C718.938538,748.174988 716.632812,747.739258 715.026672,746.075684 
	C715.351501,740.995117 715.676270,735.914612 716.901794,730.987976 
	C727.380249,731.660706 737.865234,732.248535 748.333923,733.049255 
	C752.368713,733.357849 756.360718,734.195618 760.382446,734.712341 
	C768.897583,735.806274 777.419373,736.847656 786.525574,738.531555 
	C786.548218,755.685364 786.570801,772.839172 785.833069,790.001221 
	C782.672424,789.822449 781.514893,791.700378 782.084595,794.376160 
	C782.788330,797.681763 784.033142,800.872253 784.672546,804.826233 
	C770.814087,805.887878 756.955566,806.949585 743.359619,807.991150 
	C743.359619,819.794922 743.359619,831.866760 743.359619,843.682861 
	C844.760254,843.682861 945.801086,843.682861 1047.220093,843.682861 
	C1047.220093,798.639709 1047.220093,753.912720 1047.220093,708.791992 
	C1052.007812,708.791992 1056.421143,708.791992 1060.834229,708.791992 
	C1060.834229,678.263794 1060.834229,648.132690 1060.972656,617.257019 
	C1060.926514,616.504150 1060.880371,615.751282 1060.988281,614.072632 
	C1060.988281,555.502441 1060.988281,496.932251 1060.988281,438.000000 
	C1059.116455,438.000000 1057.657959,438.000000 1056.199585,438.000000 
	C932.961487,438.000000 809.723389,437.999420 686.485291,438.006866 
	C684.990723,438.006958 683.496094,438.110504 681.102356,438.026367 
	C678.067749,438.072845 675.033081,438.119324 671.072632,438.011749 
	C542.210083,438.007843 413.347504,438.003510 284.484924,438.006927 
	C283.323761,438.006958 282.162628,438.110565 280.102295,438.026428 
	C277.067719,438.072906 274.033142,438.119385 270.072693,438.011749 
	C187.487808,438.011749 104.902924,438.011749 22.000000,438.011749 
	C22.000000,439.935455 21.995266,441.400238 22.000675,442.864960 
	C22.333250,532.924194 22.686922,622.983337 22.989811,713.042664 
	C23.107473,748.027771 23.110643,783.013367 23.023693,818.809631 
	C23.070906,822.540466 23.118118,826.271362 23.011902,830.925964 
	C23.011902,835.154907 23.011902,839.383850 23.011902,843.834839 
	C28.922518,843.834839 34.460014,843.834839 40.879589,843.973022 
	C43.253571,843.926697 45.627552,843.880432 48.927406,843.988281 
	C152.194382,843.988281 255.461365,843.988281 359.128052,843.988281 
	C359.128052,831.407166 359.128052,819.329773 359.128052,807.268555 
	C364.605865,807.268555 369.678650,807.268555 375.144592,807.268555 
	C375.144592,819.609009 375.144592,831.686279 375.144592,843.725830 
	C492.615570,843.725830 609.685425,843.725830 727.154297,843.725830 
	C727.154297,831.378296 727.154297,819.299683 727.154297,806.789551 
	C731.818176,806.789551 736.094666,806.789551 740.371216,806.789551 
	C730.615356,805.845215 720.869019,805.707458 711.178406,804.901245 
	C698.983032,803.886658 686.833008,802.326904 674.663757,800.999512 
	C665.415283,799.990784 656.161133,799.030151 646.920593,797.952942 
	C636.079590,796.689087 625.265625,795.176697 614.411438,794.046082 
	C605.767151,793.145691 597.068481,792.777283 588.414429,791.956543 
	C575.565308,790.737915 562.743896,789.224609 549.892700,788.029968 
	C537.650085,786.891907 525.397278,785.784851 513.125610,785.057678 
	C498.135345,784.169434 483.120819,783.691467 467.734283,782.382690 
	C467.545074,780.921997 467.355896,779.461243 467.951843,777.997864 
	C469.295135,776.946838 471.473175,776.125183 471.835968,774.804749 
	C473.340546,769.328247 474.205750,763.679993 475.486206,758.136536 
	C476.351959,754.388550 474.938416,752.827881 471.052307,752.304321 
	C471.459808,751.203796 471.867279,750.103271 473.032928,748.998962 
	C476.500519,749.035400 477.963898,747.241211 478.023651,743.858154 
	C478.077667,740.800781 476.447388,739.858032 473.902985,739.280029 
	C474.025116,738.853638 474.147278,738.427246 474.968872,737.893860 
	C476.869904,735.951599 478.453583,733.018860 480.741974,732.285583 
	C484.768036,730.995544 485.181030,728.504150 485.803009,725.023071 
	C488.202545,724.626770 490.602051,724.230530 493.921722,723.988220 
	C507.971069,724.325500 522.020630,724.653442 536.069702,725.002686 
	C548.955994,725.323059 561.841431,725.678101 574.727783,725.996704 
	C588.763794,726.343689 602.800415,726.666260 616.973755,727.793030 
	C616.926941,728.862549 616.880127,729.932068 616.125977,731.100647 
	C612.455078,732.917542 612.164368,735.474792 614.239502,738.785706 
	C615.067810,740.107300 615.283752,741.800720 616.036926,743.184204 
	C617.085632,745.110718 618.041931,747.302551 619.648132,748.657166 
	C621.732666,750.415222 624.291748,751.820374 626.875122,752.723877 
	C630.089417,753.848083 633.924072,756.179321 636.522278,751.013916 
	C636.681335,751.064880 636.840393,751.115784 637.020081,751.946411 
z"/>
<path fill="#000000" opacity="1.000000" stroke="none" 
	d="
M468.116760,783.036011 
	C483.120819,783.691467 498.135345,784.169434 513.125610,785.057678 
	C525.397278,785.784851 537.650085,786.891907 549.892700,788.029968 
	C562.743896,789.224609 575.565308,790.737915 588.414429,791.956543 
	C597.068481,792.777283 605.767151,793.145691 614.411438,794.046082 
	C625.265625,795.176697 636.079590,796.689087 646.920593,797.952942 
	C656.161133,799.030151 665.415283,799.990784 674.663757,800.999512 
	C686.833008,802.326904 698.983032,803.886658 711.178406,804.901245 
	C720.869019,805.707458 730.615356,805.845215 740.371216,806.789551 
	C736.094666,806.789551 731.818176,806.789551 727.154297,806.789551 
	C727.154297,819.299683 727.154297,831.378296 727.154297,843.725830 
	C609.685425,843.725830 492.615570,843.725830 375.144592,843.725830 
	C375.144592,831.686279 375.144592,819.609009 375.144592,807.268555 
	C369.678650,807.268555 364.605865,807.268555 359.128052,807.268555 
	C359.128052,819.329773 359.128052,831.407166 359.128052,843.988281 
	C255.461365,843.988281 152.194382,843.988281 48.645336,843.587769 
	C49.163906,843.026306 50.034882,843.016479 50.754574,842.681580 
	C60.271080,838.252563 69.562790,833.257385 79.317139,829.443115 
	C92.238976,824.390137 105.556030,820.357239 118.636238,815.697876 
	C145.638474,806.079285 173.268890,798.721619 201.188049,792.354004 
	C205.052917,791.472473 207.268692,792.473450 209.732605,795.892578 
	C212.230270,799.358521 216.126282,802.128906 219.945175,804.231812 
	C223.003845,805.916016 227.632874,802.403992 227.992004,798.881287 
	C229.709793,782.031555 219.927719,770.446960 204.447525,765.983032 
	C194.086182,762.995178 183.733429,763.941956 173.394516,765.999756 
	C156.381531,769.385925 139.352966,772.704590 122.393127,776.341614 
	C115.611450,777.795959 109.037766,780.203430 102.277863,781.785950 
	C100.124588,782.290039 96.428383,783.387024 96.559708,779.066895 
	C96.723389,773.682495 96.870956,768.155212 98.159180,762.971252 
	C104.903778,735.830444 111.556961,708.651917 119.135742,681.738281 
	C124.693703,662.000854 131.603790,642.643005 137.957031,623.130920 
	C148.012253,592.249390 157.991348,561.342346 168.239716,530.524902 
	C172.313019,518.276245 177.239746,506.312195 181.358032,494.077271 
	C184.037643,486.116425 182.562378,482.084412 175.297607,477.878723 
	C169.902130,474.755157 164.075180,472.163696 158.148438,470.230255 
	C152.087265,468.252960 146.881256,470.776703 143.992493,476.288818 
	C137.237488,489.178162 130.674316,502.167786 123.977310,515.087708 
	C114.859245,532.678284 107.787354,551.087585 102.482643,570.138000 
	C95.460037,595.357727 88.289230,620.555603 82.156410,645.997742 
	C76.727585,668.519348 72.725105,691.382019 67.919815,714.057434 
	C63.787586,733.556763 61.245716,753.172668 61.912880,773.167969 
	C62.076603,778.074768 63.632915,782.050781 66.971939,785.416443 
	C68.792343,787.251465 70.829704,788.871277 72.306908,790.178955 
	C63.689430,793.868835 54.828312,797.370117 46.229458,801.427246 
	C37.573521,805.511230 29.318319,810.341736 23.165968,817.998718 
	C23.110643,783.013367 23.107473,748.027771 22.989811,713.042664 
	C22.686922,622.983337 22.333250,532.924194 22.000675,442.864960 
	C21.995266,441.400238 22.000000,439.935455 22.000000,438.011749 
	C104.902924,438.011749 187.487808,438.011749 270.373383,438.400208 
	C268.157043,440.746704 264.463257,442.179230 263.315796,444.748840 
	C256.366852,460.309845 253.895874,477.012360 251.999252,493.802429 
	C251.357697,499.481995 250.007599,505.189545 250.240646,510.832275 
	C250.526001,517.741028 250.418427,525.536438 253.558578,531.259888 
	C258.711365,540.651550 268.318878,544.311584 279.237396,542.927429 
	C281.546143,542.634705 283.880981,541.722290 282.160492,538.371643 
	C279.834961,533.842651 279.543243,529.165527 280.947937,524.196045 
	C283.313202,515.828247 285.125244,507.301208 287.586365,498.964081 
	C291.191345,486.752045 295.691284,474.777496 298.709290,462.432648 
	C299.853210,457.753540 300.251282,452.218445 296.236023,447.378296 
	C292.070160,442.356659 286.728027,440.150269 281.001465,438.165833 
	C282.162628,438.110565 283.323761,438.006958 284.484924,438.006927 
	C413.347504,438.003510 542.210083,438.007843 671.373413,438.400208 
	C669.156433,440.748230 665.415161,442.191101 664.332092,444.756317 
	C659.539124,456.108398 656.132507,467.912384 654.932617,480.305542 
	C654.146484,488.424774 652.719910,496.481964 651.540283,504.849976 
	C649.906067,502.909729 648.670044,501.182281 647.168274,499.729492 
	C645.532288,498.146790 643.743225,496.680054 641.854492,495.410217 
	C638.407715,493.092896 632.492981,493.452057 629.434692,496.093964 
	C616.884338,506.935455 603.776123,517.212219 591.961853,528.806274 
	C573.259338,547.160095 555.344849,566.322754 537.288940,585.325623 
	C532.575195,590.286560 528.630249,595.971375 524.224365,601.233459 
	C520.093689,606.166809 515.820251,610.980591 510.669342,616.933716 
	C511.109680,614.654724 511.159302,613.849854 511.421356,613.121521 
	C519.130310,591.697449 526.855591,570.279297 534.591553,548.864929 
	C536.018982,544.913574 537.591370,541.012695 538.945679,537.036987 
	C543.170837,524.633545 542.266968,520.492981 528.423767,509.996918 
	C520.751770,504.179932 509.001465,502.983612 503.885345,515.190491 
	C498.580688,527.847168 491.886841,539.960510 487.159546,552.811340 
	C479.973389,572.346741 473.628693,592.212097 467.532867,612.122925 
	C460.273956,635.832764 453.951630,659.798767 450.941589,684.514771 
	C449.948578,692.668640 447.633057,695.023376 439.963013,696.961487 
	C434.801544,698.265686 429.638794,699.564758 424.055908,700.972168 
	C424.055908,699.212830 423.888672,697.562988 424.082275,695.956604 
	C425.683868,682.668335 427.375488,669.390991 428.992188,656.104553 
	C430.058563,647.341064 430.916656,638.550415 432.101776,629.803650 
	C433.610535,618.668396 435.470764,607.580566 436.966248,596.443665 
	C438.466248,585.273376 439.572113,574.049866 441.094452,562.882935 
	C442.567535,552.077087 444.525696,541.336548 445.950745,530.525146 
	C447.488647,518.857605 448.750031,507.150452 449.908844,495.438507 
	C450.158142,492.918732 450.378113,489.565002 449.021057,487.865540 
	C443.973755,481.544952 437.929474,476.637787 429.464478,474.832214 
	C421.263580,473.082977 420.197205,474.053741 415.281464,480.557983 
	C413.284210,483.200592 411.909241,486.547729 411.065643,489.786469 
	C407.847809,502.140411 404.303070,514.465271 402.102081,527.015259 
	C398.558777,547.219299 395.907013,567.582397 393.039307,587.900940 
	C391.940186,595.688843 391.282318,603.538940 390.461609,611.012695 
	C381.878265,595.468689 373.439545,579.591675 364.431458,564.044617 
	C355.824585,549.189941 346.775787,534.467773 332.540863,524.157471 
	C318.734863,514.157898 309.945007,514.852966 297.245697,523.323425 
	C296.233032,523.998840 295.228149,525.369324 295.067352,526.533875 
	C293.282745,539.457642 291.453339,552.381714 290.059265,565.351196 
	C288.482025,580.024780 286.942078,594.722107 286.101349,609.450012 
	C285.026825,628.274475 284.416840,647.135132 284.071869,665.988708 
	C283.739685,684.142944 283.893677,702.309143 284.085724,720.467468 
	C284.126282,724.304199 285.258942,728.129395 285.504333,731.983154 
	C273.614899,735.631897 262.393707,739.825195 253.092712,747.588623 
	C252.097626,744.699341 251.224609,742.200623 250.234192,739.749390 
	C249.577454,738.123962 248.087845,736.555969 248.112762,734.980286 
	C248.256561,725.891174 248.189270,716.742798 249.244537,707.737671 
	C250.662949,695.633972 252.932114,683.623962 255.030182,671.607605 
	C257.124451,659.613159 259.473846,647.663452 261.682861,635.688782 
	C264.509827,620.364319 267.460480,605.060181 270.048370,589.695190 
	C271.169464,583.039062 268.037476,578.469543 261.781464,576.358826 
	C259.339203,575.534790 256.862091,574.779419 254.354660,574.188843 
	C242.532394,571.404480 234.767624,575.391968 231.506531,585.984314 
	C225.965744,603.981567 223.884476,622.583313 221.998291,641.215271 
	C220.991928,651.156189 219.982880,661.096924 218.941833,671.034241 
	C217.645828,683.405212 215.859756,695.746826 215.157104,708.150513 
	C214.672989,716.696411 215.351715,725.354248 216.107925,733.909302 
	C216.670578,740.274475 219.100723,745.582214 226.039032,748.127808 
	C234.281128,751.151794 242.415359,752.667114 250.881714,750.473145 
	C245.119278,756.095581 240.686066,762.225403 239.502731,770.034790 
	C238.208649,778.574951 238.028076,781.861877 247.523743,781.012085 
	C259.262787,779.961670 270.993164,778.571533 282.757843,778.114929 
	C295.731323,777.611450 308.740936,777.871155 321.732025,778.029114 
	C343.139343,778.289490 364.544403,778.735352 385.972290,779.563477 
	C386.329895,785.932861 386.053345,791.955872 387.128876,797.726929 
	C389.365723,809.729492 396.062042,816.668213 408.441895,815.801086 
	C410.384827,815.664978 413.511566,813.087585 413.755463,811.317261 
	C414.939972,802.719543 415.296509,794.009521 416.027283,785.346069 
	C416.174530,783.600342 416.672791,781.884277 417.447998,780.083313 
	C425.536682,780.341919 433.186584,780.671753 440.908264,781.443726 
	C440.986847,783.215759 440.907379,784.552612 441.013672,785.874512 
	C442.052246,798.795044 447.831970,804.559631 461.602081,805.875793 
	C468.645020,806.548950 469.568054,804.196899 468.179840,797.356934 
	C467.248505,792.768066 468.076141,787.822144 468.116760,783.036011 
z"/>
<path fill="#000000" opacity="1.000000" stroke="none" 
	d="
M616.836670,726.999512 
	C602.800415,726.666260 588.763794,726.343689 574.727783,725.996704 
	C561.841431,725.678101 548.955994,725.323059 536.069702,725.002686 
	C522.020630,724.653442 507.971069,724.325500 493.651489,723.582153 
	C497.444244,722.112427 501.481079,720.933411 505.574677,720.004272 
	C527.684265,714.985535 549.708069,709.491516 571.983276,705.356323 
	C579.300476,703.997986 587.514526,702.816284 593.786682,711.476257 
	C598.139038,717.485535 603.699219,715.579651 606.229797,708.260376 
	C608.639221,701.291260 604.628845,691.628479 597.980042,686.960571 
	C588.225586,680.112305 576.912048,679.282837 565.748657,679.181458 
	C552.903503,679.064758 540.040344,680.240295 527.195801,681.029602 
	C520.621216,681.433594 514.070068,682.219666 506.863190,682.893433 
	C508.521851,680.369019 509.599792,678.123352 511.211945,676.368408 
	C527.642944,658.481628 543.986084,640.509033 560.692566,622.881531 
	C591.439270,590.439758 626.161743,561.685974 651.806641,524.684448 
	C654.150635,537.296692 668.292419,545.197876 681.084961,542.747681 
	C682.024597,542.567688 683.178528,539.900879 683.051025,538.497620 
	C682.777283,535.487122 680.888000,532.469849 681.150818,529.591431 
	C682.140381,518.753723 684.948486,508.355316 688.812439,498.091309 
	C693.182556,486.482666 696.843872,474.532990 699.709900,462.469421 
	C700.826843,457.768188 701.258301,452.241974 697.248291,447.392761 
	C693.084412,442.357544 687.738953,440.144714 682.001526,438.165771 
	C683.496094,438.110504 684.990723,438.006958 686.485291,438.006866 
	C809.723389,437.999420 932.961487,438.000000 1056.199585,438.000000 
	C1057.657959,438.000000 1059.116455,438.000000 1060.988281,438.000000 
	C1060.988281,496.932251 1060.988281,555.502441 1060.594360,614.365051 
	C1056.978638,606.841919 1053.391724,599.515381 1043.725830,597.882324 
	C1033.978516,596.235352 1024.323486,595.257935 1014.417480,596.919128 
	C1000.612061,599.234375 986.550537,600.246094 972.902771,603.214111 
	C959.230042,606.187378 945.405029,609.439087 933.354553,617.267578 
	C926.525391,621.704163 923.055237,626.803772 927.107849,636.088440 
	C929.693970,642.013245 933.848816,647.962769 942.725281,646.968262 
	C948.874756,646.279297 954.987366,645.265747 961.122681,644.443970 
	C967.426025,643.599854 973.717896,642.432251 980.050354,642.113220 
	C985.737000,641.826721 990.261353,647.207153 988.880005,652.215271 
	C986.350281,661.387146 983.821838,670.585938 980.644226,679.543457 
	C978.417297,685.820923 975.792786,691.716736 970.258240,696.574585 
	C954.247375,710.628052 936.234924,720.195068 915.474792,724.818359 
	C902.957520,727.605896 894.267761,723.308472 891.402954,711.576782 
	C889.556885,704.017151 887.984009,696.084290 888.244141,688.384766 
	C888.696716,674.995667 890.107971,661.573853 892.113098,648.316345 
	C895.794434,623.975647 904.382690,601.057434 914.752319,578.890076 
	C920.913757,565.718445 927.991516,552.928955 935.355164,540.377136 
	C946.359009,521.620544 960.197632,505.072113 976.720276,490.867096 
	C979.367859,488.590851 982.447632,486.817139 986.172852,484.222321 
	C985.860596,486.498169 985.928772,487.828827 985.485046,488.958435 
	C979.816040,503.392212 974.074402,517.797485 968.348450,532.208862 
	C967.933472,533.253113 967.090088,534.310364 967.143372,535.324951 
	C967.345947,539.181763 972.047729,543.044495 977.817383,543.886292 
	C981.528992,544.427917 983.830017,542.255676 985.526245,539.047668 
	C988.404785,533.603882 991.401550,528.213440 994.575806,522.937256 
	C1000.839355,512.526184 1007.703918,502.449615 1013.477295,491.778839 
	C1018.448364,482.591003 1020.103699,472.623322 1012.761108,463.680847 
	C1009.600830,459.832123 1005.504639,456.433624 1001.203735,453.899933 
	C988.666199,446.514099 975.304260,444.901917 961.496338,450.200165 
	C939.978088,458.456970 923.780273,473.924042 909.741150,491.235474 
	C898.557678,505.025604 889.137695,520.363098 879.940369,535.619812 
	C865.316711,559.877625 854.516113,585.908020 848.128174,613.547302 
	C845.607605,624.452881 844.622803,635.714539 842.961304,646.817444 
	C840.818298,661.137939 842.044434,675.283447 844.710693,689.446228 
	C847.360229,703.520691 853.983948,715.625427 862.452332,726.796143 
	C868.917114,735.323730 875.974304,743.717163 886.331665,747.480225 
	C892.475891,749.712524 899.324890,750.606384 905.908386,750.884460 
	C915.340271,751.282959 924.946533,751.459412 934.249207,750.128845 
	C949.614502,747.931152 962.766479,740.124634 975.523865,730.692261 
	C974.999756,740.777527 973.974487,750.404541 974.116821,760.014221 
	C974.361572,776.533813 975.005920,793.064636 976.111938,809.548584 
	C976.906799,821.394165 988.359619,831.711060 999.276489,829.554626 
	C1000.189148,815.796509 1000.867004,802.128235 1002.071228,788.506592 
	C1003.048828,777.448425 1004.006470,766.319153 1006.123352,755.445374 
	C1010.518066,732.870667 1015.425659,710.386658 1020.597290,687.974976 
	C1025.068481,668.598145 1030.101196,649.347961 1035.138550,630.107971 
	C1035.878052,627.283264 1037.440796,623.368713 1039.630493,622.500671 
	C1044.201172,620.688965 1048.902710,617.947571 1054.507446,619.790405 
	C1056.233643,620.357971 1058.704346,618.661377 1060.834229,618.001587 
	C1060.834229,648.132690 1060.834229,678.263794 1060.834229,708.791992 
	C1056.421143,708.791992 1052.007812,708.791992 1047.220093,708.791992 
	C1047.220093,753.912720 1047.220093,798.639709 1047.220093,843.682861 
	C945.801086,843.682861 844.760254,843.682861 743.359619,843.682861 
	C743.359619,831.866760 743.359619,819.794922 743.359619,807.991150 
	C756.955566,806.949585 770.814087,805.887878 785.189575,804.416016 
	C786.470764,803.615051 787.234985,803.224304 788.321899,803.000366 
	C793.081116,812.653381 799.187988,816.852661 808.340820,815.810120 
	C810.361877,815.579895 813.547668,813.130249 813.753479,811.410278 
	C815.193542,799.374634 815.991760,787.262085 817.350464,774.994873 
	C818.127380,773.603882 818.589844,772.404602 818.964050,771.178284 
	C821.066223,764.287842 822.292480,757.395569 818.923035,750.118713 
	C819.344055,744.789917 819.550903,739.857544 820.084045,734.960693 
	C821.304749,723.748779 822.750122,712.561340 823.980652,701.350342 
	C825.088989,691.253967 825.926819,681.127502 827.078613,671.036499 
	C828.263367,660.656860 829.692078,650.305298 830.997803,639.939331 
	C832.059509,631.510620 833.026184,623.069214 834.163025,614.650696 
	C835.711670,603.181946 837.415466,591.734131 838.988831,580.268616 
	C840.120789,572.020508 841.103455,563.751831 842.233398,555.503479 
	C843.782166,544.197937 845.490967,532.913818 846.972534,521.599731 
	C848.097351,513.009888 849.113647,504.399994 849.879089,495.772461 
	C850.116699,493.094177 850.351929,489.539612 848.903870,487.746338 
	C843.834900,481.468903 837.794678,476.555145 829.293396,474.800323 
	C821.544739,473.200958 820.188843,473.894897 815.185364,480.706512 
	C813.223083,483.377869 812.133667,486.768677 810.999023,489.957245 
	C801.604492,516.357361 798.925903,544.091125 795.053772,571.571228 
	C793.193359,584.774719 791.889893,598.056580 790.368225,611.013489 
	C783.042664,597.612427 775.645874,583.805847 767.987854,570.145691 
	C759.517090,555.035767 750.713623,540.035767 737.675842,528.324463 
	C726.041565,517.873901 714.737244,512.520691 699.798157,521.453552 
	C695.977295,523.738220 694.371094,526.459656 693.989075,530.515869 
	C693.021362,540.792419 692.022522,551.066162 690.980957,561.335449 
	C689.344727,577.467590 687.016663,593.560547 686.153931,609.732666 
	C684.891968,633.386658 684.400085,657.092407 684.092957,680.782837 
	C683.884644,696.849243 684.556396,712.927063 684.834595,728.999817 
	C673.198425,728.662598 661.562256,728.325378 649.463196,727.456665 
	C649.374207,720.515930 649.338867,714.050476 650.209595,707.709473 
	C651.866394,695.643860 653.939758,683.631714 656.028931,671.630249 
	C658.114563,659.649414 660.438904,647.710205 662.644775,635.750183 
	C665.466980,620.448547 668.437988,605.171692 671.016235,589.828918 
	C672.186096,582.867859 669.061584,578.377625 662.478394,576.209595 
	C660.189941,575.455994 657.865417,574.437317 655.516541,574.313721 
	C649.056335,573.973877 641.817932,572.018433 636.970581,577.843567 
	C634.227661,581.139771 632.609802,585.757324 631.608704,590.042236 
	C629.068115,600.916199 626.865295,611.890869 625.102112,622.917114 
	C623.888733,630.504761 623.773926,638.261292 622.925232,645.915466 
	C621.378601,659.864990 619.661682,673.795776 617.994263,687.731750 
	C617.393677,692.751282 616.283264,697.755859 616.199280,702.780579 
	C616.064575,710.847778 616.590149,718.925964 616.836670,726.999512 
z"/>
<path fill="#FFC500" opacity="1.000000" stroke="none" 
	d="
M681.551941,438.096069 
	C687.738953,440.144714 693.084412,442.357544 697.248291,447.392761 
	C701.258301,452.241974 700.826843,457.768188 699.709900,462.469421 
	C696.843872,474.532990 693.182556,486.482666 688.812439,498.091309 
	C684.948486,508.355316 682.140381,518.753723 681.150818,529.591431 
	C680.888000,532.469849 682.777283,535.487122 683.051025,538.497620 
	C683.178528,539.900879 682.024597,542.567688 681.084961,542.747681 
	C668.292419,545.197876 654.150635,537.296692 651.806641,524.684448 
	C626.161743,561.685974 591.439270,590.439758 560.692566,622.881531 
	C543.986084,640.509033 527.642944,658.481628 511.211945,676.368408 
	C509.599792,678.123352 508.521851,680.369019 506.863190,682.893433 
	C514.070068,682.219666 520.621216,681.433594 527.195801,681.029602 
	C540.040344,680.240295 552.903503,679.064758 565.748657,679.181458 
	C576.912048,679.282837 588.225586,680.112305 597.980042,686.960571 
	C604.628845,691.628479 608.639221,701.291260 606.229797,708.260376 
	C603.699219,715.579651 598.139038,717.485535 593.786682,711.476257 
	C587.514526,702.816284 579.300476,703.997986 571.983276,705.356323 
	C549.708069,709.491516 527.684265,714.985535 505.574677,720.004272 
	C501.481079,720.933411 497.444244,722.112427 493.191406,723.505188 
	C490.602051,724.230530 488.202545,724.626770 485.045441,725.142822 
	C477.876892,727.092957 473.160156,730.255859 474.269409,738.000854 
	C474.147278,738.427246 474.025116,738.853638 473.531158,739.855408 
	C472.864471,743.288086 472.569611,746.145447 472.274750,749.002747 
	C471.867279,750.103271 471.459808,751.203796 471.097656,753.073425 
	C469.817566,761.895203 468.492126,769.947876 467.166687,778.000549 
	C467.355896,779.461243 467.545074,780.921997 467.925537,782.709351 
	C468.076141,787.822144 467.248505,792.768066 468.179840,797.356934 
	C469.568054,804.196899 468.645020,806.548950 461.602081,805.875793 
	C447.831970,804.559631 442.052246,798.795044 441.013672,785.874512 
	C440.907379,784.552612 440.986847,783.215759 440.978333,780.979980 
	C441.659546,767.207764 442.320465,754.340271 443.038757,741.475891 
	C443.255890,737.587097 441.720825,736.275391 437.929382,737.474365 
	C432.743927,739.114136 427.405609,740.333618 422.355377,742.303711 
	C420.584045,742.994751 418.411133,745.261597 418.231049,746.996643 
	C417.194611,756.982361 416.667145,767.022461 416.075592,777.050476 
	C416.015839,778.063293 416.680634,779.118835 417.009186,780.154541 
	C416.672791,781.884277 416.174530,783.600342 416.027283,785.346069 
	C415.296509,794.009521 414.939972,802.719543 413.755463,811.317261 
	C413.511566,813.087585 410.384827,815.664978 408.441895,815.801086 
	C396.062042,816.668213 389.365723,809.729492 387.128876,797.726929 
	C386.053345,791.955872 386.329895,785.932861 386.275208,779.263123 
	C386.649231,760.668091 386.742218,742.833801 386.907928,724.535522 
	C387.008087,712.298950 387.326263,700.907532 381.549347,689.580200 
	C367.055420,661.160706 353.844055,632.088318 339.998383,603.335571 
	C337.750977,598.668396 334.889954,594.296692 331.720551,588.752991 
	C330.649109,594.934937 329.671844,599.666138 329.033081,604.442566 
	C327.582947,615.286072 326.261475,626.147278 324.958374,637.009705 
	C323.595764,648.367981 322.227783,659.726929 321.030060,671.103210 
	C320.187958,679.101624 319.629120,687.129700 318.939575,695.144226 
	C317.998535,706.082581 317.053497,717.020569 315.875641,728.318481 
	C315.427399,733.765015 315.102875,738.850159 315.025574,743.939087 
	C314.906311,751.793274 313.567444,753.078552 305.683441,751.891663 
	C303.827637,751.612305 302.025574,750.694946 300.303619,749.855896 
	C292.712219,746.156738 287.980988,740.110291 285.888397,731.959900 
	C285.258942,728.129395 284.126282,724.304199 284.085724,720.467468 
	C283.893677,702.309143 283.739685,684.142944 284.071869,665.988708 
	C284.416840,647.135132 285.026825,628.274475 286.101349,609.450012 
	C286.942078,594.722107 288.482025,580.024780 290.059265,565.351196 
	C291.453339,552.381714 293.282745,539.457642 295.067352,526.533875 
	C295.228149,525.369324 296.233032,523.998840 297.245697,523.323425 
	C309.945007,514.852966 318.734863,514.157898 332.540863,524.157471 
	C346.775787,534.467773 355.824585,549.189941 364.431458,564.044617 
	C373.439545,579.591675 381.878265,595.468689 390.461609,611.012695 
	C391.282318,603.538940 391.940186,595.688843 393.039307,587.900940 
	C395.907013,567.582397 398.558777,547.219299 402.102081,527.015259 
	C404.303070,514.465271 407.847809,502.140411 411.065643,489.786469 
	C411.909241,486.547729 413.284210,483.200592 415.281464,480.557983 
	C420.197205,474.053741 421.263580,473.082977 429.464478,474.832214 
	C437.929474,476.637787 443.973755,481.544952 449.021057,487.865540 
	C450.378113,489.565002 450.158142,492.918732 449.908844,495.438507 
	C448.750031,507.150452 447.488647,518.857605 445.950745,530.525146 
	C444.525696,541.336548 442.567535,552.077087 441.094452,562.882935 
	C439.572113,574.049866 438.466248,585.273376 436.966248,596.443665 
	C435.470764,607.580566 433.610535,618.668396 432.101776,629.803650 
	C430.916656,638.550415 430.058563,647.341064 428.992188,656.104553 
	C427.375488,669.390991 425.683868,682.668335 424.082275,695.956604 
	C423.888672,697.562988 424.055908,699.212830 424.055908,700.972168 
	C429.638794,699.564758 434.801544,698.265686 439.963013,696.961487 
	C447.633057,695.023376 449.948578,692.668640 450.941589,684.514771 
	C453.951630,659.798767 460.273956,635.832764 467.532867,612.122925 
	C473.628693,592.212097 479.973389,572.346741 487.159546,552.811340 
	C491.886841,539.960510 498.580688,527.847168 503.885345,515.190491 
	C509.001465,502.983612 520.751770,504.179932 528.423767,509.996918 
	C542.266968,520.492981 543.170837,524.633545 538.945679,537.036987 
	C537.591370,541.012695 536.018982,544.913574 534.591553,548.864929 
	C526.855591,570.279297 519.130310,591.697449 511.421356,613.121521 
	C511.159302,613.849854 511.109680,614.654724 510.669342,616.933716 
	C515.820251,610.980591 520.093689,606.166809 524.224365,601.233459 
	C528.630249,595.971375 532.575195,590.286560 537.288940,585.325623 
	C555.344849,566.322754 573.259338,547.160095 591.961853,528.806274 
	C603.776123,517.212219 616.884338,506.935455 629.434692,496.093964 
	C632.492981,493.452057 638.407715,493.092896 641.854492,495.410217 
	C643.743225,496.680054 645.532288,498.146790 647.168274,499.729492 
	C648.670044,501.182281 649.906067,502.909729 651.540283,504.849976 
	C652.719910,496.481964 654.146484,488.424774 654.932617,480.305542 
	C656.132507,467.912384 659.539124,456.108398 664.332092,444.756317 
	C665.415161,442.191101 669.156433,440.748230 671.836304,438.477264 
	C675.033081,438.119324 678.067749,438.072845 681.551941,438.096069 
z"/>
<path fill="#FFC500" opacity="1.000000" stroke="none" 
	d="
M1060.903442,617.629272 
	C1058.704346,618.661377 1056.233643,620.357971 1054.507446,619.790405 
	C1048.902710,617.947571 1044.201172,620.688965 1039.630493,622.500671 
	C1037.440796,623.368713 1035.878052,627.283264 1035.138550,630.107971 
	C1030.101196,649.347961 1025.068481,668.598145 1020.597290,687.974976 
	C1015.425659,710.386658 1010.518066,732.870667 1006.123352,755.445374 
	C1004.006470,766.319153 1003.048828,777.448425 1002.071228,788.506592 
	C1000.867004,802.128235 1000.189148,815.796509 999.276489,829.554626 
	C988.359619,831.711060 976.906799,821.394165 976.111938,809.548584 
	C975.005920,793.064636 974.361572,776.533813 974.116821,760.014221 
	C973.974487,750.404541 974.999756,740.777527 975.523865,730.692261 
	C962.766479,740.124634 949.614502,747.931152 934.249207,750.128845 
	C924.946533,751.459412 915.340271,751.282959 905.908386,750.884460 
	C899.324890,750.606384 892.475891,749.712524 886.331665,747.480225 
	C875.974304,743.717163 868.917114,735.323730 862.452332,726.796143 
	C853.983948,715.625427 847.360229,703.520691 844.710693,689.446228 
	C842.044434,675.283447 840.818298,661.137939 842.961304,646.817444 
	C844.622803,635.714539 845.607605,624.452881 848.128174,613.547302 
	C854.516113,585.908020 865.316711,559.877625 879.940369,535.619812 
	C889.137695,520.363098 898.557678,505.025604 909.741150,491.235474 
	C923.780273,473.924042 939.978088,458.456970 961.496338,450.200165 
	C975.304260,444.901917 988.666199,446.514099 1001.203735,453.899933 
	C1005.504639,456.433624 1009.600830,459.832123 1012.761108,463.680847 
	C1020.103699,472.623322 1018.448364,482.591003 1013.477295,491.778839 
	C1007.703918,502.449615 1000.839355,512.526184 994.575806,522.937256 
	C991.401550,528.213440 988.404785,533.603882 985.526245,539.047668 
	C983.830017,542.255676 981.528992,544.427917 977.817383,543.886292 
	C972.047729,543.044495 967.345947,539.181763 967.143372,535.324951 
	C967.090088,534.310364 967.933472,533.253113 968.348450,532.208862 
	C974.074402,517.797485 979.816040,503.392212 985.485046,488.958435 
	C985.928772,487.828827 985.860596,486.498169 986.172852,484.222321 
	C982.447632,486.817139 979.367859,488.590851 976.720276,490.867096 
	C960.197632,505.072113 946.359009,521.620544 935.355164,540.377136 
	C927.991516,552.928955 920.913757,565.718445 914.752319,578.890076 
	C904.382690,601.057434 895.794434,623.975647 892.113098,648.316345 
	C890.107971,661.573853 888.696716,674.995667 888.244141,688.384766 
	C887.984009,696.084290 889.556885,704.017151 891.402954,711.576782 
	C894.267761,723.308472 902.957520,727.605896 915.474792,724.818359 
	C936.234924,720.195068 954.247375,710.628052 970.258240,696.574585 
	C975.792786,691.716736 978.417297,685.820923 980.644226,679.543457 
	C983.821838,670.585938 986.350281,661.387146 988.880005,652.215271 
	C990.261353,647.207153 985.737000,641.826721 980.050354,642.113220 
	C973.717896,642.432251 967.426025,643.599854 961.122681,644.443970 
	C954.987366,645.265747 948.874756,646.279297 942.725281,646.968262 
	C933.848816,647.962769 929.693970,642.013245 927.107849,636.088440 
	C923.055237,626.803772 926.525391,621.704163 933.354553,617.267578 
	C945.405029,609.439087 959.230042,606.187378 972.902771,603.214111 
	C986.550537,600.246094 1000.612061,599.234375 1014.417480,596.919128 
	C1024.323486,595.257935 1033.978516,596.235352 1043.725830,597.882324 
	C1053.391724,599.515381 1056.978638,606.841919 1060.517334,614.827942 
	C1060.880371,615.751282 1060.926514,616.504150 1060.903442,617.629272 
z"/>
<path fill="#FFC500" opacity="1.000000" stroke="none" 
	d="
M816.995361,775.174194 
	C815.991760,787.262085 815.193542,799.374634 813.753479,811.410278 
	C813.547668,813.130249 810.361877,815.579895 808.340820,815.810120 
	C799.187988,816.852661 793.081116,812.653381 788.322998,802.578857 
	C787.532043,797.991272 787.062744,793.992126 786.593445,789.992981 
	C786.570801,772.839172 786.548218,755.685364 786.259155,737.789062 
	C785.998657,736.213318 785.954773,735.376160 786.017761,734.547180 
	C787.169861,719.385132 788.504578,704.691833 781.698547,689.765320 
	C766.962524,657.447083 752.304443,625.134644 734.987061,594.094910 
	C734.134949,592.567566 732.976501,591.211121 731.335815,588.891724 
	C729.733154,600.942078 728.303772,611.614075 726.896667,622.289062 
	C725.254333,634.747742 723.500488,647.193726 722.047119,659.674622 
	C721.117065,667.662476 720.640686,675.703186 719.965271,683.720581 
	C718.642334,699.424927 717.322266,715.129517 716.001038,730.834045 
	C715.676270,735.914612 715.351501,740.995117 715.045898,746.942993 
	C715.208008,751.449707 712.747009,751.829712 709.948120,752.125671 
	C703.552673,752.801819 698.937805,749.025208 693.992188,746.025146 
	C693.794312,745.750671 693.596436,745.476196 693.022888,744.804565 
	C690.398193,740.271545 688.149292,736.135803 685.900391,732.000000 
	C685.637268,731.203430 685.374146,730.406860 684.972778,729.305054 
	C684.556396,712.927063 683.884644,696.849243 684.092957,680.782837 
	C684.400085,657.092407 684.891968,633.386658 686.153931,609.732666 
	C687.016663,593.560547 689.344727,577.467590 690.980957,561.335449 
	C692.022522,551.066162 693.021362,540.792419 693.989075,530.515869 
	C694.371094,526.459656 695.977295,523.738220 699.798157,521.453552 
	C714.737244,512.520691 726.041565,517.873901 737.675842,528.324463 
	C750.713623,540.035767 759.517090,555.035767 767.987854,570.145691 
	C775.645874,583.805847 783.042664,597.612427 790.368225,611.013489 
	C791.889893,598.056580 793.193359,584.774719 795.053772,571.571228 
	C798.925903,544.091125 801.604492,516.357361 810.999023,489.957245 
	C812.133667,486.768677 813.223083,483.377869 815.185364,480.706512 
	C820.188843,473.894897 821.544739,473.200958 829.293396,474.800323 
	C837.794678,476.555145 843.834900,481.468903 848.903870,487.746338 
	C850.351929,489.539612 850.116699,493.094177 849.879089,495.772461 
	C849.113647,504.399994 848.097351,513.009888 846.972534,521.599731 
	C845.490967,532.913818 843.782166,544.197937 842.233398,555.503479 
	C841.103455,563.751831 840.120789,572.020508 838.988831,580.268616 
	C837.415466,591.734131 835.711670,603.181946 834.163025,614.650696 
	C833.026184,623.069214 832.059509,631.510620 830.997803,639.939331 
	C829.692078,650.305298 828.263367,660.656860 827.078613,671.036499 
	C825.926819,681.127502 825.088989,691.253967 823.980652,701.350342 
	C822.750122,712.561340 821.304749,723.748779 820.084045,734.960693 
	C819.550903,739.857544 819.344055,744.789917 818.664307,750.459229 
	C817.560242,757.687012 816.690186,764.153076 816.071106,770.643066 
	C815.931091,772.110718 816.664246,773.661621 816.995361,775.174194 
z"/>
<path fill="#FFC500" opacity="1.000000" stroke="none" 
	d="
M23.094830,818.404175 
	C29.318319,810.341736 37.573521,805.511230 46.229458,801.427246 
	C54.828312,797.370117 63.689430,793.868835 72.306908,790.178955 
	C70.829704,788.871277 68.792343,787.251465 66.971939,785.416443 
	C63.632915,782.050781 62.076603,778.074768 61.912880,773.167969 
	C61.245716,753.172668 63.787586,733.556763 67.919815,714.057434 
	C72.725105,691.382019 76.727585,668.519348 82.156410,645.997742 
	C88.289230,620.555603 95.460037,595.357727 102.482643,570.138000 
	C107.787354,551.087585 114.859245,532.678284 123.977310,515.087708 
	C130.674316,502.167786 137.237488,489.178162 143.992493,476.288818 
	C146.881256,470.776703 152.087265,468.252960 158.148438,470.230255 
	C164.075180,472.163696 169.902130,474.755157 175.297607,477.878723 
	C182.562378,482.084412 184.037643,486.116425 181.358032,494.077271 
	C177.239746,506.312195 172.313019,518.276245 168.239716,530.524902 
	C157.991348,561.342346 148.012253,592.249390 137.957031,623.130920 
	C131.603790,642.643005 124.693703,662.000854 119.135742,681.738281 
	C111.556961,708.651917 104.903778,735.830444 98.159180,762.971252 
	C96.870956,768.155212 96.723389,773.682495 96.559708,779.066895 
	C96.428383,783.387024 100.124588,782.290039 102.277863,781.785950 
	C109.037766,780.203430 115.611450,777.795959 122.393127,776.341614 
	C139.352966,772.704590 156.381531,769.385925 173.394516,765.999756 
	C183.733429,763.941956 194.086182,762.995178 204.447525,765.983032 
	C219.927719,770.446960 229.709793,782.031555 227.992004,798.881287 
	C227.632874,802.403992 223.003845,805.916016 219.945175,804.231812 
	C216.126282,802.128906 212.230270,799.358521 209.732605,795.892578 
	C207.268692,792.473450 205.052917,791.472473 201.188049,792.354004 
	C173.268890,798.721619 145.638474,806.079285 118.636238,815.697876 
	C105.556030,820.357239 92.238976,824.390137 79.317139,829.443115 
	C69.562790,833.257385 60.271080,838.252563 50.754574,842.681580 
	C50.034882,843.016479 49.163906,843.026306 48.182400,843.510742 
	C45.627552,843.880432 43.253571,843.926697 40.267113,843.585938 
	C32.013355,841.479980 27.429121,835.941284 23.165331,830.002197 
	C23.118118,826.271362 23.070906,822.540466 23.094830,818.404175 
z"/>
<path fill="#FFC500" opacity="1.000000" stroke="none" 
	d="
M616.905212,727.396240 
	C616.590149,718.925964 616.064575,710.847778 616.199280,702.780579 
	C616.283264,697.755859 617.393677,692.751282 617.994263,687.731750 
	C619.661682,673.795776 621.378601,659.864990 622.925232,645.915466 
	C623.773926,638.261292 623.888733,630.504761 625.102112,622.917114 
	C626.865295,611.890869 629.068115,600.916199 631.608704,590.042236 
	C632.609802,585.757324 634.227661,581.139771 636.970581,577.843567 
	C641.817932,572.018433 649.056335,573.973877 655.516541,574.313721 
	C657.865417,574.437317 660.189941,575.455994 662.478394,576.209595 
	C669.061584,578.377625 672.186096,582.867859 671.016235,589.828918 
	C668.437988,605.171692 665.466980,620.448547 662.644775,635.750183 
	C660.438904,647.710205 658.114563,659.649414 656.028931,671.630249 
	C653.939758,683.631714 651.866394,695.643860 650.209595,707.709473 
	C649.338867,714.050476 649.374207,720.515930 649.000732,727.379639 
	C648.676819,729.292053 648.352417,730.750000 648.028137,732.992065 
	C649.074890,736.088135 649.752930,738.679626 651.248413,740.651062 
	C653.969299,744.237610 653.736450,747.398132 649.963867,749.878845 
	C649.526611,749.946472 649.089294,750.014099 647.919678,750.193115 
	C643.791382,750.591919 640.395447,750.879333 636.999451,751.166748 
	C636.840393,751.115784 636.681335,751.064880 636.094910,750.651001 
	C634.264893,749.836853 632.868530,749.364563 631.458374,748.938232 
	C625.897583,747.256958 620.568726,745.186768 618.563843,739.007874 
	C617.725403,736.423950 617.394714,733.675354 616.833252,731.001587 
	C616.880127,729.932068 616.926941,728.862549 616.905212,727.396240 
z"/>
<path fill="#000000" opacity="1.000000" stroke="none" 
	d="
M716.451416,730.911011 
	C717.322266,715.129517 718.642334,699.424927 719.965271,683.720581 
	C720.640686,675.703186 721.117065,667.662476 722.047119,659.674622 
	C723.500488,647.193726 725.254333,634.747742 726.896667,622.289062 
	C728.303772,611.614075 729.733154,600.942078 731.335815,588.891724 
	C732.976501,591.211121 734.134949,592.567566 734.987061,594.094910 
	C752.304443,625.134644 766.962524,657.447083 781.698547,689.765320 
	C788.504578,704.691833 787.169861,719.385132 786.017761,734.547180 
	C785.954773,735.376160 785.998657,736.213318 785.965637,737.478638 
	C777.419373,736.847656 768.897583,735.806274 760.382446,734.712341 
	C756.360718,734.195618 752.368713,733.357849 748.333923,733.049255 
	C737.865234,732.248535 727.380249,731.660706 716.451416,730.911011 
M727.000000,717.470276 
	C727.000000,719.571106 727.000000,721.671936 727.000000,723.720215 
	C732.631470,723.720215 737.703552,723.720215 742.717529,723.720215 
	C742.717529,718.696411 742.717529,713.957458 742.717529,709.284973 
	C737.356750,709.284973 732.284180,709.284973 727.000000,709.284973 
	C727.000000,711.878662 727.000000,714.189331 727.000000,717.470276 
z"/>
<path fill="#FFC500" opacity="1.000000" stroke="none" 
	d="
M280.551880,438.096130 
	C286.728027,440.150269 292.070160,442.356659 296.236023,447.378296 
	C300.251282,452.218445 299.853210,457.753540 298.709290,462.432648 
	C295.691284,474.777496 291.191345,486.752045 287.586365,498.964081 
	C285.125244,507.301208 283.313202,515.828247 280.947937,524.196045 
	C279.543243,529.165527 279.834961,533.842651 282.160492,538.371643 
	C283.880981,541.722290 281.546143,542.634705 279.237396,542.927429 
	C268.318878,544.311584 258.711365,540.651550 253.558578,531.259888 
	C250.418427,525.536438 250.526001,517.741028 250.240646,510.832275 
	C250.007599,505.189545 251.357697,499.481995 251.999252,493.802429 
	C253.895874,477.012360 256.366852,460.309845 263.315796,444.748840 
	C264.463257,442.179230 268.157043,440.746704 270.836304,438.477295 
	C274.033142,438.119385 277.067719,438.072906 280.551880,438.096130 
z"/>
<path fill="#FFFFFF" opacity="1.000000" stroke="none" 
	d="
M616.479614,731.051147 
	C617.394714,733.675354 617.725403,736.423950 618.563843,739.007874 
	C620.568726,745.186768 625.897583,747.256958 631.458374,748.938232 
	C632.868530,749.364563 634.264893,749.836853 635.848999,750.602844 
	C633.924072,756.179321 630.089417,753.848083 626.875122,752.723877 
	C624.291748,751.820374 621.732666,750.415222 619.648132,748.657166 
	C618.041931,747.302551 617.085632,745.110718 616.036926,743.184204 
	C615.283752,741.800720 615.067810,740.107300 614.239502,738.785706 
	C612.164368,735.474792 612.455078,732.917542 616.479614,731.051147 
z"/>
<path fill="#FFFFFF" opacity="1.000000" stroke="none" 
	d="
M693.994629,746.435303 
	C698.937805,749.025208 703.552673,752.801819 709.948120,752.125671 
	C712.747009,751.829712 715.208008,751.449707 715.115906,747.404907 
	C716.632812,747.739258 718.938538,748.174988 719.345581,749.298523 
	C719.818726,750.604248 719.039429,752.829529 718.069702,754.091736 
	C716.261108,756.445679 707.249573,757.211426 704.644348,755.702332 
	C703.430664,754.999390 702.017151,754.000854 700.772705,754.102051 
	C695.263245,754.550049 693.816895,751.534790 693.994629,746.435303 
z"/>
<path fill="#FFFFFF" opacity="1.000000" stroke="none" 
	d="
M467.559265,777.999207 
	C468.492126,769.947876 469.817566,761.895203 471.193237,753.420166 
	C474.938416,752.827881 476.351959,754.388550 475.486206,758.136536 
	C474.205750,763.679993 473.340546,769.328247 471.835968,774.804749 
	C471.473175,776.125183 469.295135,776.946838 467.559265,777.999207 
z"/>
<path fill="#FFFFFF" opacity="1.000000" stroke="none" 
	d="
M649.985046,750.282959 
	C653.736450,747.398132 653.969299,744.237610 651.248413,740.651062 
	C649.752930,738.679626 649.074890,736.088135 648.097473,733.387817 
	C654.268616,733.231140 659.394592,741.692871 657.955505,749.158325 
	C657.254761,752.793579 653.493042,754.277161 650.370239,752.090820 
	C650.068970,751.879944 650.119202,751.166931 649.985046,750.282959 
z"/>
<path fill="#000000" opacity="1.000000" stroke="none" 
	d="
M23.088615,830.464111 
	C27.429121,835.941284 32.013355,841.479980 39.826073,843.516846 
	C34.460014,843.834839 28.922518,843.834839 23.011902,843.834839 
	C23.011902,839.383850 23.011902,835.154907 23.088615,830.464111 
z"/>
<path fill="#FFFFFF" opacity="1.000000" stroke="none" 
	d="
M474.619141,737.947388 
	C473.160156,730.255859 477.876892,727.092957 484.644623,725.226379 
	C485.181030,728.504150 484.768036,730.995544 480.741974,732.285583 
	C478.453583,733.018860 476.869904,735.951599 474.619141,737.947388 
z"/>
<path fill="#FFFFFF" opacity="1.000000" stroke="none" 
	d="
M786.213257,789.997070 
	C787.062744,793.992126 787.532043,797.991272 788.000244,802.411987 
	C787.234985,803.224304 786.470764,803.615051 785.375366,804.059143 
	C784.033142,800.872253 782.788330,797.681763 782.084595,794.376160 
	C781.514893,791.700378 782.672424,789.822449 786.213257,789.997070 
z"/>
<path fill="#FFFFFF" opacity="1.000000" stroke="none" 
	d="
M685.533569,732.008911 
	C688.149292,736.135803 690.398193,740.271545 692.777466,744.718384 
	C690.986084,744.808899 688.336182,745.294556 687.294678,744.220520 
	C685.146851,742.005676 683.504333,739.089661 682.421631,736.176758 
	C682.080017,735.257507 684.182739,733.429749 685.533569,732.008911 
z"/>
<path fill="#FFFFFF" opacity="1.000000" stroke="none" 
	d="
M472.653839,749.000854 
	C472.569611,746.145447 472.864471,743.288086 473.457001,740.180542 
	C476.447388,739.858032 478.077667,740.800781 478.023651,743.858154 
	C477.963898,747.241211 476.500519,749.035400 472.653839,749.000854 
z"/>
<path fill="#FFFFFF" opacity="1.000000" stroke="none" 
	d="
M637.009766,751.556519 
	C640.395447,750.879333 643.791382,750.591919 647.594666,750.260803 
	C646.529297,751.807434 645.286499,754.317261 643.526306,754.757202 
	C641.290649,755.316101 637.619812,756.387573 637.009766,751.556519 
z"/>
<path fill="#FFC500" opacity="1.000000" stroke="none" 
	d="
M250.999390,750.164856 
	C242.415359,752.667114 234.281128,751.151794 226.039032,748.127808 
	C219.100723,745.582214 216.670578,740.274475 216.107925,733.909302 
	C215.351715,725.354248 214.672989,716.696411 215.157104,708.150513 
	C215.859756,695.746826 217.645828,683.405212 218.941833,671.034241 
	C219.982880,661.096924 220.991928,651.156189 221.998291,641.215271 
	C223.884476,622.583313 225.965744,603.981567 231.506531,585.984314 
	C234.767624,575.391968 242.532394,571.404480 254.354660,574.188843 
	C256.862091,574.779419 259.339203,575.534790 261.781464,576.358826 
	C268.037476,578.469543 271.169464,583.039062 270.048370,589.695190 
	C267.460480,605.060181 264.509827,620.364319 261.682861,635.688782 
	C259.473846,647.663452 257.124451,659.613159 255.030182,671.607605 
	C252.932114,683.623962 250.662949,695.633972 249.244537,707.737671 
	C248.189270,716.742798 248.256561,725.891174 248.112762,734.980286 
	C248.087845,736.555969 249.577454,738.123962 250.234192,739.749390 
	C251.224609,742.200623 252.097626,744.699341 252.962402,747.874573 
	C252.269287,749.102478 251.634338,749.633667 250.999390,750.164856 
z"/>
<path fill="#FFFFFF" opacity="1.000000" stroke="none" 
	d="
M250.881714,750.473145 
	C251.634338,749.633667 252.269287,749.102478 253.034561,748.285339 
	C262.393707,739.825195 273.614899,735.631897 285.504333,731.983154 
	C287.980988,740.110291 292.712219,746.156738 300.303619,749.855896 
	C302.025574,750.694946 303.827637,751.612305 305.683441,751.891663 
	C313.567444,753.078552 314.906311,751.793274 315.025574,743.939087 
	C315.102875,738.850159 315.427399,733.765015 316.327820,728.337524 
	C327.119781,727.331604 337.216827,726.464966 347.332397,726.050903 
	C360.492310,725.512390 373.666901,725.333313 386.835175,724.999512 
	C386.742218,742.833801 386.649231,760.668091 386.253357,778.802612 
	C364.544403,778.735352 343.139343,778.289490 321.732025,778.029114 
	C308.740936,777.871155 295.731323,777.611450 282.757843,778.114929 
	C270.993164,778.571533 259.262787,779.961670 247.523743,781.012085 
	C238.028076,781.861877 238.208649,778.574951 239.502731,770.034790 
	C240.686066,762.225403 245.119278,756.095581 250.881714,750.473145 
z"/>
<path fill="#FFFFFE" opacity="1.000000" stroke="none" 
	d="
M417.447998,780.083313 
	C416.680634,779.118835 416.015839,778.063293 416.075592,777.050476 
	C416.667145,767.022461 417.194611,756.982361 418.231049,746.996643 
	C418.411133,745.261597 420.584045,742.994751 422.355377,742.303711 
	C427.405609,740.333618 432.743927,739.114136 437.929382,737.474365 
	C441.720825,736.275391 443.255890,737.587097 443.038757,741.475891 
	C442.320465,754.340271 441.659546,767.207764 440.906525,780.537842 
	C433.186584,780.671753 425.536682,780.341919 417.447998,780.083313 
z"/>
<path fill="#FFFDF9" opacity="1.000000" stroke="none" 
	d="
M817.350525,774.994873 
	C816.664246,773.661621 815.931091,772.110718 816.071106,770.643066 
	C816.690186,764.153076 817.560242,757.687012 818.598267,750.871826 
	C822.292480,757.395569 821.066223,764.287842 818.964050,771.178284 
	C818.589844,772.404602 818.127380,773.603882 817.350525,774.994873 
z"/>
<path fill="#000000" opacity="1.000000" stroke="none" 
	d="
M386.907928,724.535461 
	C373.666901,725.333313 360.492310,725.512390 347.332397,726.050903 
	C337.216827,726.464966 327.119781,727.331604 316.562317,727.977783 
	C317.053497,717.020569 317.998535,706.082581 318.939575,695.144226 
	C319.629120,687.129700 320.187958,679.101624 321.030060,671.103210 
	C322.227783,659.726929 323.595764,648.367981 324.958374,637.009705 
	C326.261475,626.147278 327.582947,615.286072 329.033081,604.442566 
	C329.671844,599.666138 330.649109,594.934937 331.720551,588.752991 
	C334.889954,594.296692 337.750977,598.668396 339.998383,603.335571 
	C353.844055,632.088318 367.055420,661.160706 381.549347,689.580200 
	C387.326263,700.907532 387.008087,712.298950 386.907928,724.535461 
M359.000000,716.499878 
	C359.000000,718.931580 359.000000,721.363281 359.000000,723.709473 
	C364.652588,723.709473 369.725006,723.709473 374.706390,723.709473 
	C374.706390,718.674927 374.706390,713.935791 374.706390,709.000000 
	C371.934814,709.000000 369.455200,709.000000 366.975555,709.000000 
	C364.373596,709.000000 361.771637,709.000000 359.000000,709.000000 
	C359.000000,711.571899 359.000000,713.552307 359.000000,716.499878 
z"/>
<path fill="#FFFFFF" opacity="1.000000" stroke="none" 
	d="
M727.000000,716.985107 
	C727.000000,714.189331 727.000000,711.878662 727.000000,709.284973 
	C732.284180,709.284973 737.356750,709.284973 742.717529,709.284973 
	C742.717529,713.957458 742.717529,718.696411 742.717529,723.720215 
	C737.703552,723.720215 732.631470,723.720215 727.000000,723.720215 
	C727.000000,721.671936 727.000000,719.571106 727.000000,716.985107 
z"/>
<path fill="#FFFFFF" opacity="1.000000" stroke="none" 
	d="
M359.000000,716.016296 
	C359.000000,713.552307 359.000000,711.571899 359.000000,709.000000 
	C361.771637,709.000000 364.373596,709.000000 366.975555,709.000000 
	C369.455200,709.000000 371.934814,709.000000 374.706390,709.000000 
	C374.706390,713.935791 374.706390,718.674927 374.706390,723.709473 
	C369.725006,723.709473 364.652588,723.709473 359.000000,723.709473 
	C359.000000,721.363281 359.000000,718.931580 359.000000,716.016296 
z"/>
</svg>